<svg width="1120" height="56" viewBox="0 0 1120 56" fill="none" xmlns="http://www.w3.org/2000/svg">
<rect width="1120" height="56" transform="matrix(-1 0 0 1 1120 0)" fill="url(#paint0_linear_0_1111)"/>
<rect width="1119" height="1" fill="#D9FFF5"/>
<path d="M39.44 21.8C40.3253 21.8 41.0133 22.0453 41.504 22.536C41.9947 23.0267 42.24 23.7147 42.24 24.6V26.52C42.24 27.4053 41.9947 28.0933 41.504 28.584C41.0133 29.0747 40.3253 29.32 39.44 29.32H34.72V32.76C34.72 32.92 34.64 33 34.48 33H33.92C33.76 33 33.68 32.92 33.68 32.76V22.04C33.68 21.88 33.76 21.8 33.92 21.8H39.44ZM34.72 22.84V28.28H39.44C40.0053 28.28 40.4373 28.1307 40.736 27.832C41.0453 27.5227 41.2 27.0853 41.2 26.52V24.6C41.2 24.0347 41.0453 23.6027 40.736 23.304C40.4373 22.9947 40.0053 22.84 39.44 22.84H34.72ZM46.1138 26.76H51.5538C51.7138 26.76 51.7938 26.84 51.7938 27V27.56C51.7938 27.72 51.7138 27.8 51.5538 27.8H46.1138V31.96H53.1538C53.3138 31.96 53.3938 32.04 53.3938 32.2V32.76C53.3938 32.92 53.3138 33 53.1538 33H45.3138C45.1538 33 45.0738 32.92 45.0738 32.76V22.04C45.0738 21.88 45.1538 21.8 45.3138 21.8H52.9938C53.1538 21.8 53.2338 21.88 53.2338 22.04V22.6C53.2338 22.76 53.1538 22.84 52.9938 22.84H46.1138V26.76ZM61.5944 31.56L66.1544 22.04C66.197 21.9547 66.245 21.896 66.2984 21.864C66.3517 21.8213 66.437 21.8 66.5544 21.8H67.3544C67.5144 21.8 67.5944 21.88 67.5944 22.04V32.76C67.5944 32.92 67.5144 33 67.3544 33H66.7944C66.6344 33 66.5544 32.92 66.5544 32.76V23.72H66.4744L62.1544 32.76C62.1117 32.8453 62.0637 32.9093 62.0104 32.952C61.957 32.984 61.8717 33 61.7544 33H61.3544C61.237 33 61.1517 32.984 61.0984 32.952C61.045 32.9093 60.997 32.8453 60.9544 32.76L56.6344 23.72H56.5544V32.76C56.5544 32.92 56.4744 33 56.3144 33H55.7544C55.5944 33 55.5144 32.92 55.5144 32.76V22.04C55.5144 21.88 55.5944 21.8 55.7544 21.8H56.5544C56.6717 21.8 56.757 21.8213 56.8104 21.864C56.8637 21.896 56.9117 21.9547 56.9544 22.04L61.5144 31.56H61.5944ZM78.9919 24.44C78.9919 23.8747 78.8372 23.4427 78.5279 23.144C78.2292 22.8347 77.7972 22.68 77.2319 22.68H73.3919C72.8265 22.68 72.3892 22.8347 72.0799 23.144C71.7812 23.4427 71.6319 23.8747 71.6319 24.44V30.36C71.6319 30.9253 71.7812 31.3627 72.0799 31.672C72.3892 31.9707 72.8265 32.12 73.3919 32.12H77.2319C77.7972 32.12 78.2292 31.9707 78.5279 31.672C78.8372 31.3627 78.9919 30.9253 78.9919 30.36V24.44ZM80.0319 30.36C80.0319 31.2453 79.7865 31.9333 79.2959 32.424C78.8052 32.9147 78.1172 33.16 77.2319 33.16H73.3919C72.5065 33.16 71.8185 32.9147 71.3279 32.424C70.8372 31.9333 70.5919 31.2453 70.5919 30.36V24.44C70.5919 23.5547 70.8372 22.8667 71.3279 22.376C71.8185 21.8853 72.5065 21.64 73.3919 21.64H77.2319C78.1172 21.64 78.8052 21.8853 79.2959 22.376C79.7865 22.8667 80.0319 23.5547 80.0319 24.44V30.36ZM84.0763 26.84H90.6363V22.04C90.6363 21.88 90.7163 21.8 90.8763 21.8H91.4363C91.5963 21.8 91.6763 21.88 91.6763 22.04V32.76C91.6763 32.92 91.5963 33 91.4363 33H90.8763C90.7163 33 90.6363 32.92 90.6363 32.76V27.88H84.0763V32.76C84.0763 32.92 83.9963 33 83.8363 33H83.2763C83.1163 33 83.0363 32.92 83.0363 32.76V22.04C83.0363 21.88 83.1163 21.8 83.2763 21.8H83.8363C83.9963 21.8 84.0763 21.88 84.0763 22.04V26.84ZM97.2363 22.84H93.5563C93.3963 22.84 93.3163 22.76 93.3163 22.6V22.04C93.3163 21.88 93.3963 21.8 93.5563 21.8H101.956C102.116 21.8 102.196 21.88 102.196 22.04V22.6C102.196 22.76 102.116 22.84 101.956 22.84H98.2763V32.76C98.2763 32.92 98.1963 33 98.0363 33H97.4763C97.3163 33 97.2363 32.92 97.2363 32.76V22.84ZM109.164 22.84H105.484C105.324 22.84 105.244 22.76 105.244 22.6V22.04C105.244 21.88 105.324 21.8 105.484 21.8H113.884C114.044 21.8 114.124 21.88 114.124 22.04V22.6C114.124 22.76 114.044 22.84 113.884 22.84H110.204V32.76C110.204 32.92 110.124 33 109.964 33H109.404C109.244 33 109.164 32.92 109.164 32.76V22.84ZM116.808 26.76H122.248C122.408 26.76 122.488 26.84 122.488 27V27.56C122.488 27.72 122.408 27.8 122.248 27.8H116.808V31.96H123.848C124.008 31.96 124.088 32.04 124.088 32.2V32.76C124.088 32.92 124.008 33 123.848 33H116.008C115.848 33 115.768 32.92 115.768 32.76V22.04C115.768 21.88 115.848 21.8 116.008 21.8H123.688C123.848 21.8 123.928 21.88 123.928 22.04V22.6C123.928 22.76 123.848 22.84 123.688 22.84H116.808V26.76ZM130.016 27.08L133.856 32.76C133.909 32.8453 133.92 32.9093 133.888 32.952C133.856 32.984 133.819 33 133.776 33H133.056C132.939 33 132.853 32.984 132.8 32.952C132.757 32.9093 132.709 32.8453 132.656 32.76L129.376 27.96L126.096 32.76C126.043 32.8453 125.989 32.9093 125.936 32.952C125.893 32.984 125.813 33 125.696 33H124.976C124.933 33 124.896 32.984 124.864 32.952C124.832 32.9093 124.843 32.8453 124.896 32.76L128.736 27.08L125.216 22.04C125.163 21.9547 125.152 21.896 125.184 21.864C125.216 21.8213 125.253 21.8 125.296 21.8H126.016C126.133 21.8 126.213 21.8213 126.256 21.864C126.309 21.896 126.363 21.9547 126.416 22.04L129.376 26.28L132.336 22.04C132.389 21.9547 132.437 21.896 132.48 21.864C132.533 21.8213 132.619 21.8 132.736 21.8H133.456C133.499 21.8 133.536 21.8213 133.568 21.864C133.6 21.896 133.589 21.9547 133.536 22.04L130.016 27.08ZM136.751 26.84H143.311V22.04C143.311 21.88 143.391 21.8 143.551 21.8H144.111C144.271 21.8 144.351 21.88 144.351 22.04V32.76C144.351 32.92 144.271 33 144.111 33H143.551C143.391 33 143.311 32.92 143.311 32.76V27.88H136.751V32.76C136.751 32.92 136.671 33 136.511 33H135.951C135.791 33 135.711 32.92 135.711 32.76V22.04C135.711 21.88 135.791 21.8 135.951 21.8H136.511C136.671 21.8 136.751 21.88 136.751 22.04V26.84ZM155.431 23.4L148.951 32.76C148.898 32.8453 148.845 32.9093 148.791 32.952C148.738 32.984 148.631 33 148.471 33H147.751C147.591 33 147.511 32.92 147.511 32.76V22.04C147.511 21.88 147.591 21.8 147.751 21.8H148.311C148.471 21.8 148.551 21.88 148.551 22.04V31.4H148.631L155.111 22.04C155.165 21.9547 155.218 21.896 155.271 21.864C155.325 21.8213 155.431 21.8 155.591 21.8H156.311C156.471 21.8 156.551 21.88 156.551 22.04V32.76C156.551 32.92 156.471 33 156.311 33H155.751C155.591 33 155.511 32.92 155.511 32.76V23.4H155.431ZM160.757 27.64V32.76C160.757 32.92 160.677 33 160.517 33H159.957C159.797 33 159.717 32.92 159.717 32.76V22.04C159.717 21.88 159.797 21.8 159.957 21.8H160.517C160.677 21.8 160.757 21.88 160.757 22.04V26.6H164.357L166.837 22.04C166.891 21.9547 166.933 21.896 166.965 21.864C167.008 21.8213 167.072 21.8 167.157 21.8H167.877C168.059 21.8 168.112 21.88 168.037 22.04L165.237 27.08L168.357 32.76C168.432 32.92 168.379 33 168.197 33H167.477C167.392 33 167.328 32.984 167.285 32.952C167.253 32.9093 167.211 32.8453 167.157 32.76L164.357 27.64H160.757ZM178.344 23.4L171.864 32.76C171.81 32.8453 171.757 32.9093 171.704 32.952C171.65 32.984 171.544 33 171.384 33H170.664C170.504 33 170.424 32.92 170.424 32.76V22.04C170.424 21.88 170.504 21.8 170.664 21.8H171.224C171.384 21.8 171.464 21.88 171.464 22.04V31.4H171.544L178.024 22.04C178.077 21.9547 178.13 21.896 178.184 21.864C178.237 21.8213 178.344 21.8 178.504 21.8H179.224C179.384 21.8 179.464 21.88 179.464 22.04V32.76C179.464 32.92 179.384 33 179.224 33H178.664C178.504 33 178.424 32.92 178.424 32.76V23.4H178.344ZM191.315 21.8C192.2 21.8 192.888 22.0453 193.379 22.536C193.87 23.0267 194.115 23.7147 194.115 24.6V26.52C194.115 27.4053 193.87 28.0933 193.379 28.584C192.888 29.0747 192.2 29.32 191.315 29.32H186.595V32.76C186.595 32.92 186.515 33 186.355 33H185.795C185.635 33 185.555 32.92 185.555 32.76V22.04C185.555 21.88 185.635 21.8 185.795 21.8H191.315ZM186.595 22.84V28.28H191.315C191.88 28.28 192.312 28.1307 192.611 27.832C192.92 27.5227 193.075 27.0853 193.075 26.52V24.6C193.075 24.0347 192.92 23.6027 192.611 23.304C192.312 22.9947 191.88 22.84 191.315 22.84H186.595ZM202.264 29.88H197.064L195.944 32.76C195.88 32.92 195.773 33 195.624 33H194.904C194.733 33 194.68 32.92 194.744 32.76L198.984 22.04C199.048 21.88 199.155 21.8 199.304 21.8H200.024C200.173 21.8 200.28 21.88 200.344 22.04L204.584 32.76C204.648 32.92 204.595 33 204.424 33H203.704C203.555 33 203.448 32.92 203.384 32.76L202.264 29.88ZM201.864 28.84L199.704 23.08H199.624L197.464 28.84H201.864ZM209.863 27.8C209.703 27.8 209.623 27.72 209.623 27.56V27C209.623 26.84 209.703 26.76 209.863 26.76H211.703C212.268 26.76 212.7 26.6107 212.999 26.312C213.308 26.0027 213.463 25.5653 213.463 25V24.44C213.463 23.8747 213.308 23.4427 212.999 23.144C212.7 22.8347 212.268 22.68 211.703 22.68H208.823C208.257 22.68 207.82 22.8347 207.511 23.144C207.212 23.4427 207.063 23.8747 207.063 24.44V24.92C207.063 25.08 206.983 25.16 206.823 25.16H206.263C206.103 25.16 206.023 25.08 206.023 24.92V24.44C206.023 23.5547 206.268 22.8667 206.759 22.376C207.249 21.8853 207.937 21.64 208.823 21.64H211.703C212.588 21.64 213.276 21.8853 213.767 22.376C214.257 22.8667 214.503 23.5547 214.503 24.44V25C214.503 25.4693 214.423 25.848 214.263 26.136C214.103 26.4133 213.927 26.6267 213.735 26.776C213.511 26.9573 213.26 27.0853 212.983 27.16V27.24C213.292 27.3253 213.569 27.464 213.815 27.656C214.028 27.8267 214.22 28.0613 214.391 28.36C214.572 28.6587 214.663 29.0587 214.663 29.56V30.36C214.663 31.2453 214.417 31.9333 213.927 32.424C213.436 32.9147 212.748 33.16 211.863 33.16H208.663C207.777 33.16 207.089 32.9147 206.599 32.424C206.108 31.9333 205.863 31.2453 205.863 30.36V29.88C205.863 29.72 205.943 29.64 206.103 29.64H206.663C206.823 29.64 206.903 29.72 206.903 29.88V30.36C206.903 30.9253 207.052 31.3627 207.351 31.672C207.66 31.9707 208.097 32.12 208.663 32.12H211.863C212.428 32.12 212.86 31.9707 213.159 31.672C213.468 31.3627 213.623 30.9253 213.623 30.36V29.56C213.623 28.9947 213.468 28.5627 213.159 28.264C212.86 27.9547 212.428 27.8 211.863 27.8H209.863ZM215.822 32.36C215.822 32.2 215.902 32.12 216.062 32.12H216.302C217.006 32.12 217.459 31.6667 217.662 30.76L219.582 22.04C219.603 21.9547 219.63 21.896 219.662 21.864C219.705 21.8213 219.785 21.8 219.902 21.8H225.582C225.742 21.8 225.822 21.88 225.822 22.04V32.76C225.822 32.92 225.742 33 225.582 33H225.022C224.862 33 224.782 32.92 224.782 32.76V22.84H220.462L218.702 30.76C218.521 31.6027 218.233 32.216 217.838 32.6C217.454 32.9733 216.942 33.16 216.302 33.16H216.062C215.902 33.16 215.822 33.08 215.822 32.92V32.36ZM236.909 23.4L230.429 32.76C230.376 32.8453 230.323 32.9093 230.269 32.952C230.216 32.984 230.109 33 229.949 33H229.229C229.069 33 228.989 32.92 228.989 32.76V22.04C228.989 21.88 229.069 21.8 229.229 21.8H229.789C229.949 21.8 230.029 21.88 230.029 22.04V31.4H230.109L236.589 22.04C236.643 21.9547 236.696 21.896 236.749 21.864C236.803 21.8213 236.909 21.8 237.069 21.8H237.789C237.949 21.8 238.029 21.88 238.029 22.04V32.76C238.029 32.92 237.949 33 237.789 33H237.229C237.069 33 236.989 32.92 236.989 32.76V23.4H236.909ZM241.036 22.04C241.036 21.88 241.116 21.8 241.276 21.8H241.836C241.996 21.8 242.076 21.88 242.076 22.04V26.36C242.076 26.9253 242.225 27.3627 242.524 27.672C242.833 27.9707 243.27 28.12 243.836 28.12H248.236V22.04C248.236 21.88 248.316 21.8 248.476 21.8H249.036C249.196 21.8 249.276 21.88 249.276 22.04V32.76C249.276 32.92 249.196 33 249.036 33H248.476C248.316 33 248.236 32.92 248.236 32.76V29.16H243.836C242.95 29.16 242.262 28.9147 241.772 28.424C241.281 27.9333 241.036 27.2453 241.036 26.36V22.04ZM253.473 26.84H260.033V22.04C260.033 21.88 260.113 21.8 260.273 21.8H260.833C260.993 21.8 261.073 21.88 261.073 22.04V32.76C261.073 32.92 260.993 33 260.833 33H260.273C260.113 33 260.033 32.92 260.033 32.76V27.88H253.473V32.76C253.473 32.92 253.393 33 253.233 33H252.673C252.513 33 252.433 32.92 252.433 32.76V22.04C252.433 21.88 252.513 21.8 252.673 21.8H253.233C253.393 21.8 253.473 21.88 253.473 22.04V26.84ZM264.473 33C264.313 33 264.233 32.92 264.233 32.76V22.04C264.233 21.88 264.313 21.8 264.473 21.8H265.033C265.193 21.8 265.273 21.88 265.273 22.04V25.56H269.193C270.078 25.56 270.766 25.8053 271.257 26.296C271.748 26.7867 271.993 27.4747 271.993 28.36V30.2C271.993 31.0853 271.748 31.7733 271.257 32.264C270.766 32.7547 270.078 33 269.193 33H264.473ZM269.193 31.96C269.758 31.96 270.19 31.8107 270.489 31.512C270.798 31.2027 270.953 30.7653 270.953 30.2V28.36C270.953 27.7947 270.798 27.3627 270.489 27.064C270.19 26.7547 269.758 26.6 269.193 26.6H265.273V31.96H269.193ZM275.113 32.76C275.113 32.92 275.033 33 274.873 33H274.313C274.153 33 274.073 32.92 274.073 32.76V22.04C274.073 21.88 274.153 21.8 274.313 21.8H274.873C275.033 21.8 275.113 21.88 275.113 22.04V32.76ZM282.075 27.08L285.915 32.76C285.969 32.8453 285.979 32.9093 285.947 32.952C285.915 32.984 285.878 33 285.835 33H285.115C284.998 33 284.913 32.984 284.859 32.952C284.817 32.9093 284.769 32.8453 284.715 32.76L281.435 27.96L278.155 32.76C278.102 32.8453 278.049 32.9093 277.995 32.952C277.953 32.984 277.873 33 277.755 33H277.035C276.993 33 276.955 32.984 276.923 32.952C276.891 32.9093 276.902 32.8453 276.955 32.76L280.795 27.08L277.275 22.04C277.222 21.9547 277.211 21.896 277.243 21.864C277.275 21.8213 277.313 21.8 277.355 21.8H278.075C278.193 21.8 278.273 21.8213 278.315 21.864C278.369 21.896 278.422 21.9547 278.475 22.04L281.435 26.28L284.395 22.04C284.449 21.9547 284.497 21.896 284.539 21.864C284.593 21.8213 284.678 21.8 284.795 21.8H285.515C285.558 21.8 285.595 21.8213 285.627 21.864C285.659 21.896 285.649 21.9547 285.595 22.04L282.075 27.08ZM290.936 33C290.776 33 290.696 32.92 290.696 32.76V22.04C290.696 21.88 290.776 21.8 290.936 21.8H298.376C298.536 21.8 298.616 21.88 298.616 22.04V22.6C298.616 22.76 298.536 22.84 298.376 22.84H291.736V26.12H296.616C297.501 26.12 298.189 26.3653 298.68 26.856C299.17 27.3467 299.416 28.0347 299.416 28.92V30.2C299.416 31.0853 299.17 31.7733 298.68 32.264C298.189 32.7547 297.501 33 296.616 33H290.936ZM296.616 31.96C297.181 31.96 297.613 31.8107 297.912 31.512C298.221 31.2027 298.376 30.7653 298.376 30.2V28.92C298.376 28.3547 298.221 27.9227 297.912 27.624C297.613 27.3147 297.181 27.16 296.616 27.16H291.736V31.96H296.616ZM307.943 21.8C308.828 21.8 309.516 22.0453 310.007 22.536C310.498 23.0267 310.743 23.7147 310.743 24.6V26.52C310.743 27.4053 310.498 28.0933 310.007 28.584C309.516 29.0747 308.828 29.32 307.943 29.32H303.223V32.76C303.223 32.92 303.143 33 302.983 33H302.423C302.263 33 302.183 32.92 302.183 32.76V22.04C302.183 21.88 302.263 21.8 302.423 21.8H307.943ZM303.223 22.84V28.28H307.943C308.508 28.28 308.94 28.1307 309.239 27.832C309.548 27.5227 309.703 27.0853 309.703 26.52V24.6C309.703 24.0347 309.548 23.6027 309.239 23.304C308.94 22.9947 308.508 22.84 307.943 22.84H303.223ZM314.617 26.76H320.057C320.217 26.76 320.297 26.84 320.297 27V27.56C320.297 27.72 320.217 27.8 320.057 27.8H314.617V31.96H321.657C321.817 31.96 321.897 32.04 321.897 32.2V32.76C321.897 32.92 321.817 33 321.657 33H313.817C313.657 33 313.577 32.92 313.577 32.76V22.04C313.577 21.88 313.657 21.8 313.817 21.8H321.497C321.657 21.8 321.737 21.88 321.737 22.04V22.6C321.737 22.76 321.657 22.84 321.497 22.84H314.617V26.76ZM325.057 26.84H331.617V22.04C331.617 21.88 331.697 21.8 331.857 21.8H332.417C332.577 21.8 332.657 21.88 332.657 22.04V32.76C332.657 32.92 332.577 33 332.417 33H331.857C331.697 33 331.617 32.92 331.617 32.76V27.88H325.057V32.76C325.057 32.92 324.977 33 324.817 33H324.257C324.097 33 324.017 32.92 324.017 32.76V22.04C324.017 21.88 324.097 21.8 324.257 21.8H324.817C324.977 21.8 325.057 21.88 325.057 22.04V26.84ZM335.338 31.96L337.498 22.04C337.519 21.9547 337.546 21.896 337.578 21.864C337.62 21.8213 337.7 21.8 337.818 21.8H343.498C343.658 21.8 343.738 21.88 343.738 22.04V31.96H344.778C344.938 31.96 345.018 32.04 345.018 32.2V34.92C345.018 35.08 344.938 35.16 344.778 35.16H344.218C344.058 35.16 343.978 35.08 343.978 34.92V33H335.178V34.92C335.178 35.08 335.098 35.16 334.938 35.16H334.378C334.218 35.16 334.138 35.08 334.138 34.92V32.2C334.138 32.04 334.218 31.96 334.378 31.96H335.338ZM342.698 31.96V22.84H338.378L336.378 31.96H342.698ZM355.373 24.44C355.373 23.8747 355.218 23.4427 354.909 23.144C354.61 22.8347 354.178 22.68 353.613 22.68H349.773C349.208 22.68 348.77 22.8347 348.461 23.144C348.162 23.4427 348.013 23.8747 348.013 24.44V30.36C348.013 30.9253 348.162 31.3627 348.461 31.672C348.77 31.9707 349.208 32.12 349.773 32.12H353.613C354.178 32.12 354.61 31.9707 354.909 31.672C355.218 31.3627 355.373 30.9253 355.373 30.36V24.44ZM356.413 30.36C356.413 31.2453 356.168 31.9333 355.677 32.424C355.186 32.9147 354.498 33.16 353.613 33.16H349.773C348.888 33.16 348.2 32.9147 347.709 32.424C347.218 31.9333 346.973 31.2453 346.973 30.36V24.44C346.973 23.5547 347.218 22.8667 347.709 22.376C348.2 21.8853 348.888 21.64 349.773 21.64H353.613C354.498 21.64 355.186 21.8853 355.677 22.376C356.168 22.8667 356.413 23.5547 356.413 24.44V30.36ZM364.617 21.8C365.503 21.8 366.191 22.0453 366.681 22.536C367.172 23.0267 367.417 23.7147 367.417 24.6V24.76C367.417 25.1867 367.348 25.5333 367.209 25.8C367.081 26.0667 366.937 26.2747 366.777 26.424C366.585 26.6053 366.372 26.744 366.137 26.84V26.92C366.5 27.0053 366.82 27.144 367.097 27.336C367.343 27.5067 367.561 27.752 367.753 28.072C367.956 28.3813 368.057 28.7973 368.057 29.32V30.2C368.057 31.0853 367.812 31.7733 367.321 32.264C366.831 32.7547 366.143 33 365.257 33H359.657C359.497 33 359.417 32.92 359.417 32.76V22.04C359.417 21.88 359.497 21.8 359.657 21.8H364.617ZM365.257 31.96C365.823 31.96 366.255 31.8107 366.553 31.512C366.863 31.2027 367.017 30.7653 367.017 30.2V29.32C367.017 28.7547 366.863 28.3227 366.553 28.024C366.255 27.7147 365.823 27.56 365.257 27.56H360.457V31.96H365.257ZM360.457 22.84V26.52H364.617C365.183 26.52 365.615 26.3707 365.913 26.072C366.223 25.7627 366.377 25.3253 366.377 24.76V24.6C366.377 24.0347 366.223 23.6027 365.913 23.304C365.615 22.9947 365.183 22.84 364.617 22.84H360.457Z" fill="#7E7E82"/>
<defs>
<linearGradient id="paint0_linear_0_1111" x1="1120" y1="0.387985" x2="15.5194" y2="0.387985" gradientUnits="userSpaceOnUse">
<stop stop-color="#F8F8F8"/>
<stop offset="1" stop-color="white"/>
</linearGradient>
</defs>
</svg>
